<?xml version="1.0" encoding="UTF-8"?>
<!DOCTYPE svg PUBLIC "-//W3C//DTD SVG 1.1//EN" "http://www.w3.org/Graphics/SVG/1.1/DTD/svg11.dtd">
<svg version="1.1" xmlns="http://www.w3.org/2000/svg" xmlns:xlink="http://www.w3.org/1999/xlink" x="0" y="0" width="516.71" height="534.768" viewBox="0, 0, 516.71, 534.768">
  <g id="Layer_1">
    <path d="M168.579,414.999 L217.329,498.749 L253.579,497.499 L263.579,448.749 L273.579,497.499 L304.829,497.499 L351.704,416.874" fill="#4C6CA6" id="path833"/>
    <path d="M168.579,414.999 L217.329,498.749 L253.579,497.499 L263.579,448.749 L273.579,497.499 L304.829,497.499 L351.704,416.874" fill-opacity="0" stroke="#3C2C1E" stroke-width="10" stroke-linecap="round" stroke-linejoin="round" id="path835"/>
    <path d="M131.704,346.874 L169.829,418.124 L352.954,414.374 L395.454,341.874" fill="#ED984A" id="path837"/>
    <path d="M131.704,346.874 L169.829,418.124 L352.954,414.374 L395.454,341.874" fill-opacity="0" stroke="#3C2C1E" stroke-width="10" stroke-linecap="round" stroke-linejoin="round" id="path839"/>
    <path d="M223.862,500.839 C223.862,500.839 193.667,510.175 202.505,521.288 C213.706,535.351 254.906,533.261 254.204,498.124" fill="#3C2C1E" id="path841"/>
    <path d="M223.862,500.839 C223.862,500.839 193.667,510.175 202.505,521.288 C213.706,535.351 254.906,533.261 254.204,498.124" fill-opacity="0" stroke="#3C2C1E" stroke-width="10" stroke-linecap="round" stroke-linejoin="round" id="path843"/>
    <path d="M300.425,500.839 C300.425,500.839 330.62,510.175 321.781,521.288 C310.581,535.351 272.69,534.169 273.394,499.022" fill="#3C2C1E" id="path845"/>
    <path d="M300.425,500.839 C300.425,500.839 330.62,510.175 321.781,521.288 C310.581,535.351 272.69,534.169 273.394,499.022" fill-opacity="0" stroke="#3C2C1E" stroke-width="10" stroke-linecap="round" stroke-linejoin="round" id="path847"/>
    <path d="M256.724,358.749 C347.974,356.249 497.485,341.249 509.985,268.749 C522.485,196.249 464.985,151.249 423.735,127.499 C382.485,103.749 359.985,54.999 359.985,54.999 L341.724,23.749 L307.974,43.749 L294.224,6.25 L258.355,39.999 L232.974,5 L209.224,44.999 L177.974,19.999 L156.724,54.999 C156.724,54.999 134.224,103.749 92.974,127.499 C51.724,151.249 -5.776,196.249 6.724,268.749 C19.224,341.249 162.974,361.249 256.724,358.749" fill="#C19860" id="path849"/>
    <path d="M256.724,358.749 C347.974,356.249 497.485,341.249 509.985,268.749 C522.485,196.249 464.985,151.249 423.735,127.499 C382.485,103.749 359.985,54.999 359.985,54.999 L341.724,23.749 L307.974,43.749 L294.224,6.25 L258.355,39.999 L232.974,5 L209.224,44.999 L177.974,19.999 L156.724,54.999 C156.724,54.999 134.224,103.749 92.974,127.499 C51.724,151.249 -5.776,196.249 6.724,268.749 C19.224,341.249 162.974,361.249 256.724,358.749 z" fill-opacity="0" stroke="#3C2C1E" stroke-width="10" stroke-linecap="round" stroke-linejoin="round" id="path851"/>
    <path d="M204.224,63.749 C204.224,63.749 175.474,116.249 151.724,134.999 C127.974,153.749 45.474,238.749 101.724,321.249 M310.474,63.749 C310.474,63.749 339.224,116.249 362.974,134.999 C386.724,153.749 469.224,238.749 412.974,321.249 M256.724,62.499 L256.724,339.999" fill-opacity="0" stroke="#D9B07A" stroke-width="10" stroke-linecap="round" stroke-linejoin="round" id="path853"/>
    <path d="M225.591,189.394 C225.591,220.351 200.503,245.438 169.555,245.438 C138.599,245.438 113.521,220.351 113.521,189.394 C113.521,158.446 138.599,133.358 169.555,133.358 C200.503,133.358 225.591,158.446 225.591,189.394" fill="#E87E41" id="path855"/>
    <path d="M160.103,155.663 C161.978,159.843 158.13,165.644 151.499,168.612 C144.867,171.581 137.983,170.585 136.108,166.405 C134.233,162.226 138.091,156.415 144.712,153.456 C151.333,150.487 158.228,151.483 160.103,155.663" fill="#FFFFFE" id="path857"/>
    <path d="M400.874,189.394 C400.874,220.351 375.786,245.438 344.829,245.438 C313.882,245.438 288.794,220.351 288.794,189.394 C288.794,158.446 313.882,133.358 344.829,133.358 C375.786,133.358 400.874,158.446 400.874,189.394" fill="#E87E41" id="path859"/>
    <path d="M335.376,155.663 C337.251,159.843 333.403,165.644 326.781,168.612 C320.151,171.581 313.267,170.585 311.392,166.405 C309.517,162.226 313.363,156.415 319.985,153.456 C326.615,150.487 333.51,151.483 335.376,155.663" fill="#FFFFFE" id="path861"/>
    <path d="M225.151,159.101 C222.446,164.364 212.183,164.511 202.212,159.394 C192.251,154.296 186.372,145.868 189.067,140.605 C191.781,135.331 202.046,135.194 212.007,140.302 C221.978,145.409 227.857,153.827 225.151,159.101" fill="#3C2C1E" id="path863"/>
    <path d="M277.904,159.101 C280.61,164.364 290.883,164.511 300.844,159.394 C310.805,154.296 316.685,145.868 313.988,140.605 C311.274,135.331 301.01,135.194 291.05,140.302 C281.089,145.409 275.199,153.827 277.904,159.101" fill="#3C2C1E" id="path865"/>
    <path d="M197.329,191.249 C197.329,191.249 197.329,233.749 252.329,238.749 C307.329,243.749 313.579,188.749 313.579,188.749" fill-opacity="0" stroke="#3C2C1E" stroke-width="10" stroke-linecap="round" stroke-linejoin="round" id="path867"/>
    <path d="M93.529,279.56 C93.529,279.56 41.499,271.327 47.279,256.366 C53.091,241.405 94.281,246.845 94.281,246.845 C94.281,246.845 82.572,235.39 93.023,230.312 C103.471,225.253 124.526,227.694 125.23,271.073" fill="#C19860" id="path869"/>
    <path d="M93.529,279.56 C93.529,279.56 41.499,271.327 47.279,256.366 C53.091,241.405 94.281,246.845 94.281,246.845 C94.281,246.845 82.572,235.39 93.023,230.312 C103.471,225.253 124.526,227.694 125.23,271.073" fill-opacity="0" stroke="#3C2C1E" stroke-width="10" stroke-linecap="round" stroke-linejoin="round" id="path871"/>
    <path d="M201.079,364.374 L125.454,267.499 L91.704,282.499 L150.454,381.249" fill="#ED984A" id="path873"/>
    <path d="M201.079,364.374 L125.454,267.499 L91.704,282.499 L150.454,381.249" fill-opacity="0" stroke="#3C2C1E" stroke-width="10" stroke-linecap="round" stroke-linejoin="round" id="path875"/>
    <path d="M429.995,279.56 C429.995,279.56 482.026,271.327 476.245,256.366 C470.435,241.405 429.242,246.845 429.242,246.845 C429.242,246.845 440.951,235.39 430.503,230.312 C420.053,225.253 398.999,227.694 398.296,271.073" fill="#C19860" id="path877"/>
    <path d="M429.995,279.56 C429.995,279.56 482.026,271.327 476.245,256.366 C470.435,241.405 429.242,246.845 429.242,246.845 C429.242,246.845 440.951,235.39 430.503,230.312 C420.053,225.253 398.999,227.694 398.296,271.073" fill-opacity="0" stroke="#3C2C1E" stroke-width="10" stroke-linecap="round" stroke-linejoin="round" id="path879"/>
    <path d="M331.079,363.124 L398.071,267.499 L431.821,282.499 L374.321,376.249" fill="#ED984A" id="path881"/>
    <path d="M331.079,363.124 L398.071,267.499 L431.821,282.499 L374.321,376.249" fill-opacity="0" stroke="#3C2C1E" stroke-width="10" stroke-linecap="round" stroke-linejoin="round" id="path883"/>
  </g>
</svg>
